<?xml version="1.0" standalone="no"?>
<!DOCTYPE svg PUBLIC "-//W3C//DTD SVG 20010904//EN"
 "http://www.w3.org/TR/2001/REC-SVG-20010904/DTD/svg10.dtd">
<svg version="1.0" xmlns="http://www.w3.org/2000/svg"
 width="512.000000pt" height="512.000000pt" viewBox="0 0 512.000000 512.000000"
 preserveAspectRatio="xMidYMid meet">

<g transform="translate(0.000000,512.000000) scale(0.100000,-0.100000)"
fill="#000000" stroke="none">
<path d="M2789 4727 c-86 -36 -144 -89 -181 -165 -30 -61 -33 -75 -33 -162 0
-87 3 -101 33 -165 31 -66 66 -103 595 -631 504 -503 570 -565 642 -607 44
-25 93 -51 109 -59 25 -11 -273 -14 -1815 -18 l-1844 -5 -58 -23 c-81 -33
-166 -114 -203 -194 -25 -53 -29 -75 -29 -143 1 -68 5 -90 32 -145 55 -117
152 -189 283 -210 43 -6 679 -10 1855 -10 l1790 -1 -71 -37 c-38 -21 -92 -54
-120 -74 -27 -20 -295 -283 -595 -585 -613 -615 -598 -596 -607 -744 -9 -150
66 -282 196 -346 51 -25 68 -28 157 -28 175 0 81 -80 1153 989 519 518 958
964 977 993 70 104 81 237 30 352 -23 51 -132 163 -993 1024 -807 806 -975
970 -1017 989 -37 16 -74 23 -140 25 -77 3 -98 0 -146 -20z"/>
</g>
</svg>
