<?xml version="1.0" standalone="no"?>
<!DOCTYPE svg PUBLIC "-//W3C//DTD SVG 20010904//EN"
 "http://www.w3.org/TR/2001/REC-SVG-20010904/DTD/svg10.dtd">
<svg version="1.0" xmlns="http://www.w3.org/2000/svg"
 width="512.000000pt" height="512.000000pt" viewBox="0 0 512.000000 512.000000"
 preserveAspectRatio="xMidYMid meet">

<g transform="translate(0.000000,512.000000) scale(0.100000,-0.100000)"
fill="#000000" stroke="none">
<path d="M2321 5110 c-868 -84 -1644 -610 -2037 -1382 -139 -273 -221 -536
-266 -853 -20 -140 -17 -504 6 -660 39 -278 121 -541 247 -794 249 -502 647
-900 1150 -1150 815 -406 1779 -350 2539 147 297 194 579 482 771 788 74 116
184 342 234 478 51 138 110 376 131 531 23 157 26 521 6 660 -43 299 -120 554
-246 810 -378 768 -1090 1285 -1941 1411 -122 18 -466 26 -594 14z m386 -1010
c60 -21 79 -34 853 -588 361 -258 563 -409 577 -431 27 -41 29 -84 5 -130 -30
-61 -61 -75 -170 -81 l-97 -5 -5 -775 -5 -775 -31 -65 c-45 -94 -111 -162
-197 -205 -100 -49 -147 -55 -409 -55 -241 0 -274 5 -294 47 -5 10 -11 210
-14 445 l-5 426 -31 38 c-59 74 -81 79 -324 79 -243 0 -265 -5 -324 -79 l-31
-38 -5 -426 c-3 -235 -9 -435 -14 -445 -20 -42 -53 -47 -294 -47 -126 0 -253
5 -283 10 -138 26 -263 122 -322 247 l-32 68 -5 775 -5 775 -97 5 c-109 6
-139 20 -171 81 -22 41 -17 100 10 138 22 30 1314 957 1383 992 99 51 226 58
337 19z"/>
</g>
</svg>
